<svg width="28" height="42" viewBox="0 0 28 42" fill="none" xmlns="http://www.w3.org/2000/svg">
    <circle cx="21" cy="21" r="7" fill="#1ABCFE"/>
    <path d="M14 14H7C3.13401 14 4.76837e-07 17.134 4.76837e-07 21V21C4.76837e-07 24.866 3.13401 28 7 28H14V14Z" fill="#A259FF"/>
    <path d="M14 28H7C3.13401 28 4.76837e-07 31.134 4.76837e-07 35V35C4.76837e-07 38.866 3.14765 42 7.01365 42V42C10.8646 42 14 38.8782 14 35.0272V28Z" fill="#0ACF83"/>
    <path d="M14 0H7C3.13401 0 4.76837e-07 3.13401 4.76837e-07 7V7C4.76837e-07 10.866 3.13401 14 7 14H14V0Z" fill="#F24E1E"/>
    <path d="M14 0H21C24.866 0 28 3.13401 28 7V7C28 10.866 24.866 14 21 14H14V0Z" fill="#FF7262"/>
</svg>
